<svg width="256" height="256" viewBox="0 0 256 256" fill="none" xmlns="http://www.w3.org/2000/svg">
<path d="M84.9254 254.326C79.8983 254.326 74.8431 253.579 69.8919 252.073C56.7158 248.066 45.8608 239.183 39.3247 227.055C26.6292 203.426 34.4353 173.69 57.0924 159.351C60.6976 157.477 64.0612 155.558 67.5315 153.509C64.5894 151.784 61.7851 150.168 58.9048 148.558C44.9981 140.524 36.4529 129.278 34.16 116.012C31.1111 98.0031 31.1055 75.2421 58.3231 58.8711C80.3985 45.6753 103.041 32.7465 124.94 20.242C132.201 16.0973 139.465 11.9497 146.726 7.77967C161.048 -0.377762 178.743 -0.700911 194.083 6.917C209.566 14.6052 220.112 29.0767 222.295 45.6276C225.473 66.7925 214.902 87.9349 195.988 98.1858C193.178 99.7735 190.486 101.339 187.861 102.904C188.457 103.258 189.042 103.612 189.62 103.96C191.68 105.202 193.667 106.397 195.696 107.543C211.271 116.31 221.104 131.195 222.669 148.372C224.211 165.345 217.347 181.528 203.836 192.77C199.495 196.3 194.588 199.062 189.845 201.737C188.44 202.527 187.038 203.319 185.653 204.128C163.187 217.217 136.534 232.686 109.193 248.153C101.594 252.25 93.302 254.326 84.9254 254.326ZM170.931 7.04626C163.448 7.04626 156.075 8.92053 149.513 12.6578C142.255 16.8251 134.988 20.9754 127.725 25.1202C105.849 37.6134 83.231 50.5282 61.2118 63.6902C41.9942 75.2478 35.5593 90.6128 39.6957 115.063C42.2218 129.669 53.0432 138.684 61.6783 143.668C65.8652 146.009 69.9144 148.375 74.4722 151.076C75.3236 151.581 75.8463 152.497 75.8491 153.484C75.8519 154.476 75.3321 155.395 74.4835 155.9C69.4086 158.944 64.8058 161.672 59.8827 164.218C39.9176 176.863 32.9657 203.347 44.2703 224.386C50.0955 235.196 59.7759 243.117 71.5245 246.691C83.2844 250.266 95.699 249.032 106.475 243.232C133.738 227.808 160.371 212.35 182.82 199.27C184.231 198.449 185.658 197.646 187.089 196.842C191.627 194.285 196.319 191.641 200.267 188.432C212.311 178.408 218.448 163.985 217.074 148.881C215.683 133.572 206.885 120.289 192.939 112.438C190.86 111.264 188.831 110.041 186.723 108.774C184.902 107.675 183.02 106.543 180.985 105.371C180.128 104.876 179.594 103.966 179.58 102.977C179.566 101.988 180.075 101.063 180.918 100.543C184.866 98.1127 188.907 95.7327 193.271 93.2683C210.156 84.1161 219.569 65.2947 216.734 46.4115C214.79 31.6703 205.39 18.8061 191.585 11.9497C184.987 8.67887 177.911 7.04626 170.931 7.04626Z" fill="white"/>
<path d="M104.112 167.896C103.629 167.896 103.143 167.77 102.707 167.52C101.836 167.017 101.299 166.089 101.299 165.086V91.6834C101.299 90.6803 101.833 89.753 102.704 89.25C103.57 88.747 104.643 88.747 105.514 89.25L169.006 125.867C169.875 126.367 170.411 127.295 170.411 128.298C170.411 129.301 169.88 130.228 169.009 130.734L105.52 167.517C105.087 167.77 104.601 167.896 104.112 167.896ZM106.922 96.5476V160.208L161.99 128.306L106.922 96.5476Z" fill="white"/>
</svg>
