<svg width="256" height="256" viewBox="0 0 256 256" fill="none" xmlns="http://www.w3.org/2000/svg">
<path d="M85.8836 254.307C66.874 254.307 48.446 244.095 38.7908 226.181C25.6709 201.76 33.7357 171.029 57.1542 156.209C57.2919 156.125 57.4324 156.041 57.5757 155.968C59.4668 154.987 61.313 153.978 63.1648 152.93C61.7963 152.146 60.4335 151.371 59.0509 150.598C44.6637 142.292 35.8319 130.608 33.4378 116.771C30.3046 98.2589 30.3131 74.8628 58.4074 57.9663C80.0079 45.0543 102.142 32.4149 123.552 20.1886C130.653 16.1338 137.759 12.0762 144.866 7.99885C159.7 -0.453629 178.015 -0.793639 193.861 7.07436C209.855 15.0154 220.75 29.9815 223.009 47.1084C226.285 68.9393 215.366 90.7899 195.816 101.384C194.555 102.097 193.33 102.8 192.127 103.494C193.276 104.18 194.42 104.851 195.575 105.503C211.634 114.54 221.772 129.905 223.391 147.65C224.987 165.196 217.903 181.915 203.957 193.523C199.506 197.14 194.614 199.897 189.885 202.56C188.516 203.33 187.145 204.103 185.796 204.893C163.867 217.67 137.838 232.774 111.028 247.942C103.022 252.258 94.3923 254.307 85.8836 254.307ZM62.9653 165.837C44.6637 177.565 38.389 201.681 48.6905 220.854C59.7253 241.322 85.2458 249.069 105.596 238.101C132.249 223.02 158.238 207.936 180.134 195.179C181.53 194.364 182.949 193.566 184.369 192.762C188.89 190.216 193.161 187.811 196.822 184.835C207.832 175.674 213.452 162.473 212.199 148.665C210.923 134.66 202.853 122.492 190.056 115.29C187.993 114.124 185.984 112.916 183.899 111.66C182.135 110.598 180.311 109.499 178.349 108.366C176.635 107.377 175.568 105.559 175.537 103.578C175.509 101.597 176.526 99.7482 178.209 98.7113C182.137 96.2919 186.001 94.0158 190.373 91.543C205.865 83.1495 214.472 65.941 211.881 48.6736C210.097 35.1631 201.498 23.4117 188.862 17.137C176.371 10.9353 162.004 11.1657 150.446 17.7524C143.348 21.8269 136.236 25.8873 129.127 29.945C107.768 42.1432 85.6785 54.7572 64.1876 67.6018C46.3554 78.3275 40.6511 92.0235 44.5176 114.869C46.3441 125.44 53.105 134.176 64.6063 140.816C68.6864 143.104 72.6654 145.422 77.1389 148.075C78.8418 149.083 79.8899 150.915 79.8955 152.894C79.9011 154.875 78.8642 156.712 77.167 157.73C72.2636 160.68 67.8013 163.324 62.9653 165.837Z" fill="white"/>
<path d="M104.649 169.866C103.679 169.866 102.71 169.616 101.842 169.113C100.099 168.11 99.026 166.252 99.026 164.243V92.4984C99.026 90.4892 100.097 88.6346 101.836 87.6314C103.575 86.6283 105.719 86.6283 107.456 87.6314L169.515 123.422C171.254 124.426 172.325 126.277 172.328 128.287C172.33 130.296 171.26 132.147 169.526 133.156L107.467 169.11C106.593 169.616 105.621 169.866 104.649 169.866ZM110.269 102.229V154.495L155.476 128.303L110.269 102.229Z" fill="white"/>
</svg>
