<svg width="924" height="207" viewBox="0 0 924 207" fill="none" xmlns="http://www.w3.org/2000/svg">
<path d="M117.755 147.194V58.8777L194.237 103.036L117.755 147.194ZM288.237 32.1777C286.559 25.9399 283.272 20.2523 278.704 15.6847C274.136 11.1171 268.449 7.82983 262.211 6.15203C239.251 0 147.194 0 147.194 0C147.194 0 55.1356 0 32.1777 6.15203C25.94 7.82999 20.2525 11.1174 15.6849 15.6849C11.1174 20.2525 7.82999 25.94 6.15203 32.1777C0 55.1374 0 103.036 0 103.036C0 103.036 0 150.936 6.15203 173.893C7.82983 180.13 11.1171 185.818 15.6847 190.385C20.2523 194.953 25.9399 198.24 32.1777 199.918C55.1356 206.072 147.194 206.072 147.194 206.072C147.194 206.072 239.251 206.072 262.211 199.918C268.449 198.241 274.137 194.953 278.704 190.386C283.272 185.818 286.559 180.13 288.237 173.893C294.389 150.935 294.389 103.034 294.389 103.034C294.389 103.034 294.389 55.1374 288.237 32.1777ZM459.935 167.259C461.548 163.053 462.356 156.176 462.356 146.631V106.422C462.356 97.1584 461.548 90.3885 459.935 86.1066C458.322 81.8265 455.479 79.6856 451.412 79.6856C447.481 79.6856 444.705 81.8265 443.093 86.1066C441.479 90.3885 440.672 97.1584 440.672 106.422V146.631C440.672 156.172 441.443 163.051 442.99 167.259C444.531 171.472 447.337 173.574 451.41 173.574C455.479 173.574 458.322 171.472 459.935 167.259ZM427.307 187.472C421.479 183.547 417.337 177.44 414.885 169.154C412.428 160.878 411.201 149.859 411.201 136.104V117.367C411.201 103.474 412.602 92.315 415.41 83.8948C418.216 75.4746 422.6 69.3353 428.568 65.475C434.533 61.6166 442.357 59.6847 452.042 59.6847C461.586 59.6847 469.234 61.6511 474.989 65.5786C480.742 69.5079 484.953 75.6509 487.621 84.0002C490.285 92.3513 491.619 103.474 491.619 117.368V136.106C491.619 149.859 490.321 160.914 487.726 169.262C485.127 177.613 480.916 183.719 475.093 187.576C469.268 191.436 461.375 193.366 451.412 193.366C441.161 193.366 433.128 191.4 427.307 187.472ZM878.128 82.0955C876.656 83.922 875.671 86.9045 875.182 91.0428C874.688 95.1829 874.448 101.464 874.448 109.884V119.148H895.706V109.882C895.706 101.604 895.425 95.3228 894.865 91.0409C894.303 86.7609 893.287 83.7457 891.815 81.9901C890.339 80.2345 888.059 79.3566 884.971 79.3566C881.881 79.3566 879.602 80.2708 878.128 82.0937V82.0955ZM874.448 136.411V142.938C874.448 151.22 874.688 157.43 875.182 161.568C875.671 165.71 876.687 168.729 878.235 170.623C879.778 172.515 882.161 173.465 885.392 173.465C889.74 173.465 892.726 171.781 894.34 168.411C895.952 165.043 896.829 159.429 896.969 151.567L922.023 153.043C922.163 154.17 922.234 155.713 922.234 157.674C922.234 169.605 918.971 178.52 912.443 184.412C905.92 190.304 896.688 193.254 884.76 193.254C870.446 193.254 860.41 188.765 854.656 179.779C848.898 170.801 846.023 156.905 846.023 138.096V115.569C846.023 96.2007 849.005 82.0628 854.972 73.1464C860.935 64.2355 871.147 59.7792 885.603 59.7792C895.566 59.7792 903.216 61.6039 908.55 65.2533C913.881 68.9064 917.637 74.5895 919.813 82.3063C921.988 90.025 923.077 100.693 923.077 114.306V136.411H874.448ZM356.563 133.994L323.509 14.6249H352.35L363.927 68.7301C366.877 82.0683 369.053 93.4363 370.454 102.836H371.297C372.279 96.1007 374.456 84.8035 377.824 68.9409L389.824 14.6249H418.665L385.193 133.994V191.262H356.561V133.994M585.424 62.2109V191.262H562.686L560.16 175.472H559.529C553.352 187.402 544.088 193.365 531.739 193.365C523.179 193.365 516.863 190.56 512.792 184.944C508.721 179.334 506.687 170.559 506.687 158.628V62.2109H535.739V156.947C535.739 162.704 536.372 166.808 537.635 169.262C538.898 171.721 541.002 172.946 543.95 172.946C546.476 172.946 548.897 172.177 551.213 170.628C553.528 169.085 555.247 167.124 556.371 164.738V62.2091L585.424 62.2109ZM734.445 62.2109V191.262H711.707L709.179 175.472H708.552C702.369 187.402 693.107 193.365 680.76 193.365C672.198 193.365 665.882 190.56 661.811 184.944C657.74 179.334 655.708 170.559 655.708 158.628V62.2109H684.76V156.947C684.76 162.704 685.39 166.808 686.652 169.262C687.917 171.721 690.023 172.946 692.969 172.946C695.497 172.946 697.918 172.177 700.232 170.628C702.549 169.085 704.266 167.124 705.391 164.738V62.2091H734.443" fill="white"/>
<path d="M664.368 37.999H635.525V191.262H607.106V37.9972H578.265V14.6304H664.368V37.999ZM803.967 135.479C803.967 144.883 803.577 152.252 802.806 157.583C802.036 162.921 800.736 166.708 798.911 168.951C797.087 171.197 794.628 172.32 791.545 172.32C789.226 172.34 786.941 171.76 784.912 170.636C782.876 169.512 781.23 167.83 779.965 165.583V92.3186C780.946 88.811 782.631 85.934 785.017 83.6876C787.403 81.4449 789.997 80.3199 792.805 80.3199C795.754 80.3199 798.032 81.4776 799.649 83.7912C801.26 86.1084 802.384 90.0032 803.017 95.4773C803.649 100.95 803.967 108.739 803.967 118.844V135.479ZM830.597 82.8389C828.839 74.7004 825.997 68.8064 822.069 65.1552C818.138 61.5076 812.735 59.6829 805.859 59.6829C800.525 59.6829 795.544 61.1913 790.913 64.2083C786.346 67.1551 782.641 71.2594 780.175 76.1034H779.963L779.965 8.10216H751.967V191.258H775.964L778.912 179.05H779.543C781.787 183.4 785.155 186.838 789.648 189.364C794.137 191.891 799.122 193.154 804.596 193.154C814.418 193.154 821.648 188.626 826.28 179.576C830.911 170.521 833.228 156.385 833.228 137.155V116.734C833.228 102.28 832.349 90.981 830.597 82.8389Z" fill="white"/>
</svg>
